<?xml version="1.0" encoding="UTF-8" standalone="no"?>
<svg width="23px" height="19px" viewBox="0 0 23 19" version="1.1" xmlns="http://www.w3.org/2000/svg" xmlns:xlink="http://www.w3.org/1999/xlink" xmlns:sketch="http://www.bohemiancoding.com/sketch/ns">
    <!-- Generator: Sketch 3.4.4 (17249) - http://www.bohemiancoding.com/sketch -->
    <title>Shape</title>
    <desc>Created with Sketch.</desc>
    <defs></defs>
    <g id="Page-1" stroke="none" stroke-width="1" fill="none" fill-rule="evenodd" sketch:type="MSPage">
        <g id="Mock-Combo" sketch:type="MSArtboardGroup" transform="translate(-1179.000000, -5068.000000)" fill="#000000">
            <g id="Footer" sketch:type="MSLayerGroup" transform="translate(-23.000000, 4018.500000)">
                <g id="social-icons" transform="translate(1146.101562, 1039.937500)" sketch:type="MSShapeGroup">
                    <g id="twitter16" transform="translate(48.000000, 0.000000)">
                        <g id="Capa_1" transform="translate(8.000000, 10.000000)">
                            <path d="M22.2800928,2.40804628 C21.4310946,2.77329536 20.5817602,3.00138693 19.7330982,3.09299335 C20.6916879,2.5178059 21.3399924,1.70528218 21.6778436,0.655422207 C20.8011114,1.17564581 19.8653812,1.5316502 18.870317,1.72343538 C17.9937529,0.792243536 16.9166631,0.326479528 15.6383754,0.326479528 C14.4150515,0.326479528 13.372083,0.757786076 12.5091337,1.62056726 C11.6463526,2.48334844 11.215046,3.52631692 11.215046,4.74964079 C11.215046,5.0782473 11.2515205,5.4160985 11.3246375,5.76302629 C9.51688154,5.67175604 7.82107025,5.21758991 6.2370356,4.40052789 C4.65300095,3.58329779 3.30865576,2.49461014 2.20400002,1.13429686 C1.80227646,1.81890776 1.60141468,2.56302081 1.60141468,3.36646792 C1.60141468,4.12419587 1.77941688,4.82729614 2.13558935,5.47543256 C2.49159374,6.12356898 2.97097265,6.64849897 3.57355799,7.05022252 C2.86138112,7.02282464 2.19492342,6.83557776 1.57418488,6.48864997 L1.57418488,6.54344573 C1.57418488,7.61162699 1.90968288,8.54954225 2.58067888,9.35769575 C3.25167489,10.1658492 4.09848798,10.6746431 5.12095007,10.8845814 C4.73754779,10.9849283 4.34943914,11.0351857 3.95696026,11.0351857 C3.70130272,11.0351857 3.42278559,11.0123262 3.12157696,10.9669432 C3.40463239,11.8524158 3.92502408,12.5803927 4.68275203,13.1510419 C5.44047998,13.7218591 6.29872286,14.0160082 7.25731259,14.0344975 C5.65058644,15.2941278 3.82013893,15.924111 1.76597006,15.924111 C1.3733231,15.924111 1.01731871,15.9061259 0.697788803,15.8694833 C2.75195767,17.1931541 5.01606492,17.8549054 7.49027863,17.8549054 C9.0605303,17.8549054 10.5349734,17.6063074 11.9132718,17.1087753 C13.2920745,16.6112432 14.4696792,15.9447855 15.4465902,15.1092341 C16.4233331,14.2740189 17.2656079,13.313076 17.9730784,12.2265734 C18.6805489,11.140239 19.207664,10.0060003 19.5547598,8.82368916 C19.9016876,7.64120998 20.0751515,6.45688187 20.0751515,5.2698644 C20.0751515,5.01420685 20.0706132,4.82258976 20.0613685,4.69467694 C20.9288561,4.06502989 21.6684309,3.30259556 22.2800928,2.40804628 L22.2800928,2.40804628 Z" id="Shape"></path>
                        </g>
                    </g>
                </g>
            </g>
        </g>
    </g>
</svg>