<?xml version="1.0" encoding="utf-8"?>
<!-- Generator: Adobe Illustrator 15.0.0, SVG Export Plug-In . SVG Version: 6.00 Build 0)  -->
<!DOCTYPE svg PUBLIC "-//W3C//DTD SVG 1.1//EN" "http://www.w3.org/Graphics/SVG/1.1/DTD/svg11.dtd">
<svg version="1.1" id="Layer_1" xmlns="http://www.w3.org/2000/svg" xmlns:xlink="http://www.w3.org/1999/xlink" x="0px" y="0px"
	 width="469.368px" height="451.097px" viewBox="0 0 469.368 451.097" enable-background="new 0 0 469.368 451.097"
	 xml:space="preserve">
<g>
	<path fill="#3DA9A4" d="M26.125,451.097v-42.48H0v-7.363h60.959v7.363H35.542v42.48H26.125z"/>
	<path fill="#3DA9A4" d="M112.932,451.097l-11.682-22.231H74.982v22.231h-9.417v-49.844h42.339c11.328,0,15.647,4.885,15.647,12.036
		v3.54c0,6.443-3.469,11.045-12.319,11.895l11.753,22.373H112.932z M114.135,413.218c0-2.973-1.982-4.602-6.23-4.602H74.982v12.886
		h32.922c4.248,0,6.23-1.628,6.23-4.603V413.218z"/>
	<path fill="#3DA9A4" d="M129.787,451.097v-49.844h9.417v49.844H129.787z"/>
	<path fill="#3DA9A4" d="M156.48,432.688v18.408h-9.417v-49.844h40.852c11.328,0,15.647,4.885,15.647,12.036v7.363
		c0,7.151-4.319,12.036-15.647,12.036H156.48z M194.146,413.218c0-2.973-1.982-4.602-6.23-4.602H156.48v16.709h31.436
		c4.248,0,6.23-1.629,6.23-4.602V413.218z"/>
	<path fill="#35414F" d="M217.869,432.688v18.408h-9.417v-49.844h40.852c11.328,0,15.647,4.885,15.647,12.036v7.363
		c0,7.151-4.319,12.036-15.647,12.036H217.869z M255.535,413.218c0-2.973-1.982-4.602-6.23-4.602h-31.436v16.709h31.436
		c4.248,0,6.23-1.629,6.23-4.602V413.218z"/>
	<path fill="#35414F" d="M270.195,451.097v-49.844h9.417v49.844H270.195z"/>
	<path fill="#35414F" d="M310.624,451.097v-42.48h-26.125v-7.363h60.959v7.363H320.04v42.48H310.624z"/>
	<path fill="#35414F" d="M363.375,451.097c-11.328,0-15.647-4.885-15.647-12.036v-25.771c0-7.151,4.319-12.036,15.647-12.036h40.144
		v7.363h-40.144c-4.248,0-6.23,1.629-6.23,4.602v25.914c0,2.973,1.982,4.602,6.23,4.602h40.144v7.363H363.375z"/>
	<path fill="#35414F" d="M459.952,451.097V428.44H419.17v22.656h-9.416v-49.844h9.416v19.824h40.781v-19.824h9.416v49.844H459.952z"
		/>
</g>
<g>
	<path fill="#35414F" d="M347.176,342.454c0,9.508-8.178,17.217-18.277,17.217H144.876c-10.1,0-18.279-7.709-18.279-17.217V115.16
		c0-9.515,8.179-17.222,18.279-17.222h184.023c10.1,0,18.277,7.707,18.277,17.222V342.454z"/>
	<path fill="#35414F" d="M185.598,369.753c0,5.456-4.218,9.878-9.413,9.878l0,0c-5.195,0-9.414-4.422-9.414-9.878v-14.814
		c0-5.454,4.218-9.877,9.414-9.877l0,0c5.195,0,9.413,4.423,9.413,9.877V369.753z"/>
	<path fill="#35414F" d="M305.47,369.753c0,5.456-4.218,9.878-9.415,9.878l0,0c-5.192,0-9.412-4.422-9.412-9.878v-14.814
		c0-5.454,4.22-9.877,9.412-9.877l0,0c5.196,0,9.415,4.423,9.415,9.877V369.753z"/>
	<rect x="195.235" y="12.351" fill="#35414F" width="12.103" height="97.943"/>
	<rect x="264.859" y="12.351" fill="#35414F" width="12.103" height="97.943"/>
	<path fill="#35414F" d="M289.769,9.052c0,5.001-4.051,9.058-9.059,9.058h-89.296c-5.006,0-9.056-4.057-9.056-9.058l0,0
		c0-5,4.05-9.052,9.056-9.052h89.296C285.717,0,289.769,4.051,289.769,9.052L289.769,9.052z"/>
</g>
</svg>
