<?xml version="1.0" encoding="utf-8"?>
<!-- Generator: Adobe Illustrator 15.0.0, SVG Export Plug-In . SVG Version: 6.00 Build 0)  -->
<!DOCTYPE svg PUBLIC "-//W3C//DTD SVG 1.1//EN" "http://www.w3.org/Graphics/SVG/1.1/DTD/svg11.dtd">
<svg version="1.1" id="Layer_1" xmlns="http://www.w3.org/2000/svg" xmlns:xlink="http://www.w3.org/1999/xlink" x="0px" y="0px"
	 width="802.349px" height="218.348px" viewBox="0 0 802.349 218.348" enable-background="new 0 0 802.349 218.348"
	 xml:space="preserve">
<g>
	<path fill="#3DA9A4" d="M180.047,171.053v-59.646h-36.683v-10.339h85.593v10.339h-35.688v59.646H180.047z"/>
	<path fill="#3DA9A4" d="M301.922,171.053l-16.402-31.215h-36.881v31.215h-13.222v-69.985h59.447c15.905,0,21.97,6.859,21.97,16.899
		v4.971c0,9.047-4.871,15.509-17.298,16.701l16.503,31.414H301.922z M303.613,117.868c0-4.176-2.783-6.462-8.748-6.462h-46.226
		v18.093h46.226c5.965,0,8.748-2.286,8.748-6.462V117.868z"/>
	<path fill="#3DA9A4" d="M325.582,171.053v-69.985h13.222v69.985H325.582z"/>
	<path fill="#3DA9A4" d="M363.059,145.206v25.847h-13.222v-69.985h57.36c15.905,0,21.97,6.859,21.97,16.899v10.339
		c0,10.041-6.064,16.9-21.97,16.9H363.059z M415.946,117.868c0-4.176-2.784-6.462-8.748-6.462h-44.139v23.461h44.139
		c5.964,0,8.748-2.286,8.748-6.462V117.868z"/>
	<path fill="#35414F" d="M449.247,145.206v25.847h-13.222v-69.985h57.36c15.905,0,21.97,6.859,21.97,16.899v10.339
		c0,10.041-6.064,16.9-21.97,16.9H449.247z M502.133,117.868c0-4.176-2.784-6.462-8.748-6.462h-44.139v23.461h44.139
		c5.964,0,8.748-2.286,8.748-6.462V117.868z"/>
	<path fill="#35414F" d="M522.709,171.053v-69.985h13.222v69.985H522.709z"/>
	<path fill="#35414F" d="M579.472,171.053v-59.646H542.79v-10.339h85.593v10.339h-35.688v59.646H579.472z"/>
	<path fill="#35414F" d="M653.532,171.053c-15.906,0-21.97-6.859-21.97-16.899v-36.187c0-10.04,6.063-16.899,21.97-16.899h56.366
		v10.339h-56.366c-5.965,0-8.748,2.286-8.748,6.462v36.384c0,4.176,2.783,6.462,8.748,6.462h56.366v10.339H653.532z"/>
	<path fill="#35414F" d="M789.127,171.053v-31.812h-57.261v31.812h-13.222v-69.985h13.222v27.835h57.261v-27.835h13.222v69.985
		H789.127z"/>
</g>
<g>
	<path fill="#35414F" d="M126.867,196.964c0,5.469-4.703,9.903-10.512,9.903H10.512C4.704,206.867,0,202.433,0,196.964V66.234
		c0-5.471,4.704-9.903,10.512-9.903h105.843c5.809,0,10.512,4.432,10.512,9.903V196.964z"/>
	<path fill="#35414F" d="M33.934,212.668c0,3.136-2.425,5.68-5.413,5.68l0,0c-2.988,0-5.414-2.544-5.414-5.68v-8.521
		c0-3.138,2.425-5.681,5.414-5.681l0,0c2.988,0,5.413,2.543,5.413,5.681V212.668z"/>
	<path fill="#35414F" d="M102.88,212.668c0,3.136-2.426,5.68-5.416,5.68l0,0c-2.986,0-5.413-2.544-5.413-5.68v-8.521
		c0-3.138,2.427-5.681,5.413-5.681l0,0c2.989,0,5.416,2.543,5.416,5.681V212.668z"/>
	<rect x="39.477" y="7.104" fill="#35414F" width="6.962" height="56.334"/>
	<rect x="79.522" y="7.104" fill="#35414F" width="6.961" height="56.334"/>
	<path fill="#35414F" d="M93.849,5.207c0,2.876-2.33,5.209-5.21,5.209H37.281c-2.88,0-5.209-2.333-5.209-5.209l0,0
		C32.071,2.33,34.401,0,37.281,0h51.357C91.519,0,93.849,2.33,93.849,5.207L93.849,5.207z"/>
</g>
</svg>
