<?xml version="1.0" encoding="UTF-8" standalone="no"?>
<svg width="832px" height="219px" viewBox="0 0 832 219" version="1.1" xmlns="http://www.w3.org/2000/svg" xmlns:xlink="http://www.w3.org/1999/xlink">
    <!-- Generator: Sketch 3.7.1 (28215) - http://www.bohemiancoding.com/sketch -->
    <title>Artboard</title>
    <desc>Created with Sketch.</desc>
    <defs></defs>
    <g id="Page-1" stroke="none" stroke-width="1" fill="none" fill-rule="evenodd">
        <g id="Artboard">
            <g id="logo-horizontal" fill="#35414F">
                <g id="Group">
                    <path d="M126.867,196.964 C126.867,202.433 122.164,206.867 116.355,206.867 L10.512,206.867 C4.704,206.867 0,202.433 0,196.964 L0,66.234 C0,60.763 4.704,56.331 10.512,56.331 L116.355,56.331 C122.164,56.331 126.867,60.763 126.867,66.234 L126.867,196.964 L126.867,196.964 Z" id="Shape"></path>
                    <path d="M33.934,212.668 C33.934,215.804 31.509,218.348 28.521,218.348 L28.521,218.348 C25.533,218.348 23.107,215.804 23.107,212.668 L23.107,204.147 C23.107,201.009 25.532,198.466 28.521,198.466 L28.521,198.466 C31.509,198.466 33.934,201.009 33.934,204.147 L33.934,212.668 L33.934,212.668 Z" id="Shape"></path>
                    <path d="M102.88,212.668 C102.88,215.804 100.454,218.348 97.464,218.348 L97.464,218.348 C94.478,218.348 92.051,215.804 92.051,212.668 L92.051,204.147 C92.051,201.009 94.478,198.466 97.464,198.466 L97.464,198.466 C100.453,198.466 102.88,201.009 102.88,204.147 L102.88,212.668 L102.88,212.668 Z" id="Shape"></path>
                    <rect id="Rectangle-path" x="39.477" y="7.104" width="6.962" height="56.334"></rect>
                    <rect id="Rectangle-path" x="79.522" y="7.104" width="6.961" height="56.334"></rect>
                    <path d="M93.849,5.207 C93.849,8.083 91.519,10.416 88.639,10.416 L37.281,10.416 C34.401,10.416 32.072,8.083 32.072,5.207 L32.072,5.207 C32.071,2.33 34.401,0 37.281,0 L88.638,0 C91.519,0 93.849,2.33 93.849,5.207 L93.849,5.207 L93.849,5.207 Z" id="Shape"></path>
                </g>
            </g>
            <text id="Waytopia" font-family="PirulenRg-Regular, Pirulen" font-size="100" font-weight="normal" letter-spacing="-2.5999999">
                <tspan x="143" y="172" fill="#3DA9A4">Way</tspan>
                <tspan x="433.9" y="172" fill="#35414F">topia</tspan>
            </text>
        </g>
    </g>
</svg>